<svg width="12" height="7" viewBox="0 0 12 7" fill="none" xmlns="http://www.w3.org/2000/svg">
<path d="M11.7623 1.37363L6.44303 6.75636C6.3797 6.82025 6.3111 6.86561 6.23722 6.89245C6.16334 6.91928 6.08419 6.93248 5.99976 6.93206C5.91532 6.93206 5.83617 6.91864 5.76229 6.89181C5.68841 6.86497 5.61981 6.81982 5.55648 6.75636L0.221391 1.37363C0.0736342 1.22456 -0.000244398 1.03821 -0.000244408 0.814597C-0.000244418 0.590982 0.0789112 0.399312 0.237223 0.239587C0.395534 0.0798626 0.580231 -2.53734e-08 0.791312 -3.46e-08C1.00239 -4.38267e-08 1.18709 0.0798625 1.3454 0.239587L5.99976 4.9355L10.6541 0.239587C10.8019 0.0905104 10.984 0.0159721 11.2006 0.0159721C11.4172 0.0159721 11.6044 0.0958342 11.7623 0.255559C11.9206 0.415284 11.9998 0.60163 11.9998 0.814596C11.9998 1.02756 11.9206 1.21391 11.7623 1.37363Z" fill="#222222"/>
</svg>
