<svg width="29" height="26" viewBox="0 0 29 26" fill="none" xmlns="http://www.w3.org/2000/svg">
<path d="M3.30887 20.7811H14.452C17.2011 20.7811 19.8377 19.689 21.7816 17.7451C23.7255 15.8011 24.8176 13.1646 24.8176 10.4154V6.52828C24.8206 5.42422 24.4708 4.34808 23.8194 3.45666C23.168 2.56525 22.249 1.90514 21.1962 1.57254C20.1434 1.23993 19.0119 1.2522 17.9666 1.60757C16.9213 1.96293 16.0168 2.64282 15.3849 3.54815L1.49487 23.3725" stroke="#222222" stroke-width="1.73777" stroke-linecap="round" stroke-linejoin="round"/>
<path d="M24.8176 6.52829L27.409 7.17614L24.8176 7.824M11.8605 20.7811V24.6682M17.0434 20.4572V24.6682M7.97339 20.7811C9.57115 20.781 11.1301 20.2886 12.438 19.371C13.746 18.4533 14.7395 17.155 15.2832 15.6526C15.827 14.1502 15.8946 12.5167 15.4769 10.9745C15.0592 9.43232 14.1765 8.05626 12.9489 7.03362" stroke="#222222" stroke-width="1.73777" stroke-linecap="round" stroke-linejoin="round"/>
</svg>
