<svg width="26" height="26" viewBox="0 0 26 26" fill="none" xmlns="http://www.w3.org/2000/svg">
<path d="M17.3152 2.51339C16.8093 2.55989 16.3391 2.79372 15.9967 3.16902C15.6544 3.54433 15.4646 4.03403 15.4645 4.54206V10.5305C15.4645 10.7761 15.367 11.0117 15.1933 11.1853C15.0197 11.359 14.7842 11.4566 14.5386 11.4566C12.7571 11.4566 11.5052 12.1826 10.5793 13.2939C9.62616 14.4397 9.00516 16.0177 8.61626 17.6858C8.22984 19.3441 8.0891 21.0147 8.04712 22.2815C8.0331 22.6859 8.02816 23.0906 8.0323 23.4952H16.6991V22.5692C16.6991 21.8326 16.4066 21.1261 15.886 20.6052C15.3653 20.0842 14.659 19.7914 13.9225 19.791H12.3793C12.1337 19.791 11.8982 19.6935 11.7246 19.5198C11.5509 19.3461 11.4534 19.1106 11.4534 18.865C11.4534 18.6194 11.5509 18.3838 11.7246 18.2102C11.8982 18.0365 12.1337 17.9389 12.3793 17.9389H13.9225C14.5304 17.9391 15.1322 18.059 15.6937 18.2918C16.2552 18.5246 16.7653 18.8657 17.195 19.2956C17.6247 19.7256 17.9655 20.236 18.1979 20.7976C18.4304 21.3593 18.5499 21.9613 18.5498 22.5692V23.4952H19.4757C19.7213 23.4952 19.9568 23.3977 20.1305 23.224C20.3041 23.0503 20.4017 22.8148 20.4017 22.5692V10.2218C20.4017 9.97667 20.4989 9.7415 20.672 9.5679C20.8451 9.3943 21.08 9.29645 21.3251 9.29579H21.9498C22.2249 9.29575 22.4949 9.22221 22.7319 9.08277C22.969 8.94334 23.1645 8.74307 23.2982 8.5027C23.4319 8.26234 23.499 7.9906 23.4924 7.71562C23.4859 7.44064 23.406 7.17241 23.261 6.93868L22.4955 5.70395C22.3572 5.48099 22.1643 5.29697 21.9351 5.16929C21.7059 5.0416 21.448 4.97447 21.1856 4.97422H18.2399C17.9943 4.97422 17.7588 4.87666 17.5852 4.70299C17.4115 4.52932 17.314 4.29377 17.314 4.04817L17.3152 2.51339ZM6.18165 23.4952C6.17795 23.1446 6.18042 22.7124 6.19647 22.2198C6.24091 20.8825 6.3903 19.0811 6.81376 17.266C7.23352 15.4608 7.94341 13.5667 9.15825 12.1085C10.2348 10.8158 11.6953 9.88476 13.6151 9.65757V4.54206C13.6151 3.51138 14.0242 2.52284 14.7524 1.79358C15.4807 1.06431 16.4686 0.653958 17.4991 0.652649C18.4201 0.652649 19.1658 1.39843 19.1658 2.31954V3.12212H21.1856C22.3585 3.12212 23.4499 3.72961 24.0684 4.72727L24.8338 5.96201C26.182 8.13885 24.7301 10.9256 22.2498 11.1355V22.5692C22.2498 23.3054 21.9577 24.0114 21.4375 24.5323C20.9174 25.0532 20.2118 25.3464 19.4757 25.3473H5.34337C4.42952 25.3477 3.53551 25.0808 2.77131 24.5797C2.0071 24.0785 1.40602 23.3649 1.04201 22.5266C0.677993 21.6882 0.566916 20.7618 0.72244 19.8612C0.877965 18.9606 1.29331 18.125 1.91738 17.4574L3.31864 15.9547C3.9859 15.239 4.3494 14.2923 4.33259 13.3139C4.31578 12.3356 3.91997 11.4019 3.22851 10.7096L1.85441 9.33283C1.69086 9.15729 1.60181 8.9251 1.60605 8.68519C1.61028 8.44528 1.70746 8.21638 1.8771 8.04671C2.04675 7.87704 2.27563 7.77985 2.51551 7.77562C2.75539 7.77138 2.98755 7.86044 3.16308 8.02402L4.53841 9.39951C5.56977 10.431 6.16036 11.8227 6.18569 13.2812C6.21103 14.7398 5.66912 16.1511 4.67422 17.2179L3.27172 18.7205C2.89526 19.125 2.64498 19.6306 2.55158 20.1753C2.45818 20.72 2.5257 21.2801 2.74588 21.787C2.96606 22.2938 3.32932 22.7254 3.79114 23.0289C4.25296 23.3323 4.79327 23.4944 5.34584 23.4952H6.18165Z" fill="#222222"/>
</svg>
