<svg width="25" height="26" viewBox="0 0 25 26" fill="none" xmlns="http://www.w3.org/2000/svg">
<path d="M16.2768 2.41656C16.0343 2.41656 15.8017 2.50948 15.6302 2.67487C15.4586 2.84027 15.3623 3.0646 15.3623 3.29851V5.06242C15.3623 5.29632 15.4586 5.52065 15.6302 5.68605C15.8017 5.85145 16.0343 5.94437 16.2768 5.94437C16.5194 5.94437 16.752 5.85145 16.9235 5.68605C17.095 5.52065 17.1914 5.29632 17.1914 5.06242C17.1914 4.82851 17.2878 4.60418 17.4593 4.43878C17.6308 4.27338 17.8634 4.18046 18.106 4.18046C18.3485 4.18046 18.5811 4.27338 18.7526 4.43878C18.9242 4.60418 19.0205 4.82851 19.0205 5.06242C19.0207 5.4986 18.9091 5.92806 18.6956 6.31258C18.4821 6.69711 18.1733 7.02476 17.7967 7.26639C17.4202 7.50802 16.9875 7.65612 16.5372 7.69752C16.087 7.73891 15.6331 7.67232 15.216 7.50366C15.0544 8.89991 14.679 10.2653 14.102 11.5554C13.3503 13.2117 12.3625 14.3935 11.4718 15.3513C10.8352 16.0374 10.4237 17.0217 10.1804 18.1929C9.93713 19.3571 9.87494 20.6289 9.87494 21.8195C9.87494 22.354 9.67374 22.9996 9.30792 23.5834H17.0359C16.8456 23.0681 16.4948 22.622 16.0315 22.3063C15.5682 21.9905 15.015 21.8205 14.4477 21.8195H13.5332C13.2906 21.8195 13.058 21.7266 12.8865 21.5612C12.715 21.3958 12.6186 21.1715 12.6186 20.9376C12.6186 20.7037 12.715 20.4793 12.8865 20.3139C13.058 20.1485 13.2906 20.0556 13.5332 20.0556H14.4477C14.7605 20.0556 15.066 20.0856 15.3623 20.1438V17.4098C15.3623 17.1759 15.4586 16.9515 15.6302 16.7861C15.8017 16.6207 16.0343 16.5278 16.2768 16.5278C16.5194 16.5278 16.752 16.6207 16.9235 16.7861C17.095 16.9515 17.1914 17.1759 17.1914 17.4098V20.9376C18.0694 21.5726 18.7022 22.5075 18.9291 23.5834H22.5233C22.3341 23.0674 21.9835 22.6206 21.52 22.3047C21.0564 21.9887 20.5027 21.8192 19.9351 21.8195C19.6925 21.8195 19.4599 21.7266 19.2884 21.5612C19.1169 21.3958 19.0205 21.1715 19.0205 20.9376V8.59023C19.0205 8.35632 19.1169 8.13199 19.2884 7.96659C19.4599 7.8012 19.6925 7.70828 19.9351 7.70828H21.7642C22.0067 7.70828 22.2394 7.61536 22.4109 7.44996C22.5824 7.28456 22.6787 7.06023 22.6787 6.82632V5.17883C22.6788 5.02642 22.6379 4.87659 22.56 4.74397C22.4821 4.61135 22.3698 4.50046 22.2343 4.42212L18.9839 2.54179C18.8419 2.45978 18.6794 2.4165 18.5139 2.41656H16.2768ZM6.21672 23.5834C6.79106 23.5834 7.2337 23.3153 7.56111 22.922C7.90865 22.5004 8.04583 22.0277 8.04583 21.8195C8.04583 20.5848 8.10985 19.179 8.38604 17.8454C8.66224 16.5225 9.16708 15.1908 10.1072 14.1765C10.9431 13.2769 11.7864 12.2539 12.4302 10.8445C13.0686 9.43867 13.5332 7.59891 13.5332 5.06242V3.29851C13.5332 2.59678 13.8222 1.9238 14.3368 1.4276C14.8513 0.931408 15.5492 0.652649 16.2768 0.652649H18.5139C19.0113 0.652694 19.4994 0.783174 19.9259 1.03012L23.1763 2.91045C23.5824 3.14554 23.9185 3.47802 24.1518 3.87554C24.3852 4.27305 24.5078 4.72205 24.5079 5.17883V6.82632C24.5079 7.52805 24.2188 8.20103 23.7043 8.69723C23.1897 9.19342 22.4919 9.47218 21.7642 9.47218H20.8496V20.1438C21.8825 20.3471 22.8108 20.8883 23.4774 21.6759C24.1441 22.4634 24.5081 23.4488 24.5079 24.4654C24.5079 24.6993 24.4115 24.9236 24.24 25.089C24.0685 25.2544 23.8359 25.3473 23.5933 25.3473H5.75944C4.68005 25.3477 3.62917 25.0132 2.7621 24.3932C1.89502 23.7733 1.25773 22.9008 0.944388 21.9047C0.631049 20.9086 0.658284 19.8418 1.02207 18.8618C1.38585 17.8818 2.06689 17.0406 2.96455 16.4625C3.06429 16.3957 3.17683 16.3488 3.2956 16.3243C3.41438 16.2999 3.537 16.2986 3.65633 16.3203C3.77565 16.3421 3.88928 16.3866 3.99059 16.4512C4.0919 16.5157 4.17886 16.5991 4.24639 16.6965C4.31392 16.7938 4.36067 16.9031 4.38392 17.0181C4.40717 17.133 4.40644 17.2513 4.38179 17.366C4.35713 17.4806 4.30904 17.5894 4.24032 17.686C4.1716 17.7825 4.08363 17.8649 3.98154 17.9284C3.40982 18.296 2.97596 18.8313 2.74411 19.4551C2.51225 20.0789 2.49472 20.7581 2.69409 21.3922C2.89346 22.0264 3.29916 22.5818 3.85119 22.9764C4.40322 23.371 5.07228 23.5839 5.75944 23.5834H6.21672Z" fill="#222222"/>
</svg>
