<svg width="27" height="25" viewBox="0 0 27 25" fill="none" xmlns="http://www.w3.org/2000/svg">
<path id="favorite" d="M13.5921 24.2948L11.6824 22.5946C9.46529 20.6109 7.63236 18.8997 6.18358 17.461C4.7348 16.0224 3.58236 14.7308 2.72626 13.5864C1.87017 12.442 1.272 11.3902 0.931753 10.4311C0.591509 9.47194 0.421387 8.49102 0.421387 7.48829C0.421387 5.43924 1.11285 3.72807 2.49578 2.35478C3.8787 0.981479 5.60187 0.29483 7.66529 0.29483C8.80675 0.29483 9.89334 0.534612 10.925 1.01418C11.9568 1.49374 12.8458 2.16949 13.5921 3.04142C14.3385 2.16949 15.2275 1.49374 16.2592 1.01418C17.2909 0.534612 18.3775 0.29483 19.5189 0.29483C21.5824 0.29483 23.3055 0.981479 24.6885 2.35478C26.0714 3.72807 26.7629 5.43924 26.7629 7.48829C26.7629 8.49102 26.5927 9.47194 26.2525 10.4311C25.9122 11.3902 25.3141 12.442 24.458 13.5864C23.6019 14.7308 22.4494 16.0224 21.0007 17.461C19.5519 18.8997 17.7189 20.6109 15.5019 22.5946L13.5921 24.2948Z" fill="#FF483C"/>
</svg>
