<svg width="27" height="25" viewBox="0 0 27 25" fill="none" xmlns="http://www.w3.org/2000/svg">
<path id="favorite" d="M13.5926 24.6048L11.6829 22.9046C9.46578 20.9209 7.63285 19.2098 6.18407 17.7711C4.73529 16.3324 3.58285 15.0408 2.72675 13.8964C1.87066 12.752 1.27248 11.7002 0.932241 10.7411C0.591997 9.78196 0.421875 8.80103 0.421875 7.79831C0.421875 5.74926 1.11334 4.03809 2.49627 2.66479C3.87919 1.2915 5.60236 0.604847 7.66578 0.604847C8.80724 0.604847 9.89383 0.844629 10.9255 1.32419C11.9572 1.80376 12.8463 2.47951 13.5926 3.35144C14.3389 2.47951 15.228 1.80376 16.2597 1.32419C17.2914 0.844629 18.378 0.604847 19.5194 0.604847C21.5829 0.604847 23.306 1.2915 24.689 2.66479C26.0719 4.03809 26.7633 5.74926 26.7633 7.79831C26.7633 8.80103 26.5932 9.78196 26.253 10.7411C25.9127 11.7002 25.3146 12.752 24.4585 13.8964C23.6024 15.0408 22.4499 16.3324 21.0011 17.7711C19.5524 19.2098 17.7194 20.9209 15.5024 22.9046L13.5926 24.6048ZM13.5926 21.0735C15.6999 19.1989 17.4341 17.5912 18.795 16.2506C20.156 14.91 21.2316 13.7438 22.0219 12.752C22.8121 11.7602 23.3609 10.8773 23.6682 10.1035C23.9755 9.32964 24.1292 8.56125 24.1292 7.79831C24.1292 6.49041 23.6902 5.40049 22.8121 4.52855C21.9341 3.65662 20.8365 3.22065 19.5194 3.22065C18.4877 3.22065 17.5329 3.50948 16.6548 4.08714C15.7768 4.66479 15.1731 5.40049 14.8438 6.29422H12.3414C12.0121 5.40049 11.4085 4.66479 10.5304 4.08714C9.65236 3.50948 8.69748 3.22065 7.66578 3.22065C6.3487 3.22065 5.25114 3.65662 4.37309 4.52855C3.49505 5.40049 3.05602 6.49041 3.05602 7.79831C3.05602 8.56125 3.20968 9.32964 3.517 10.1035C3.82431 10.8773 4.37309 11.7602 5.16334 12.752C5.95358 13.7438 7.02919 14.91 8.39017 16.2506C9.75114 17.5912 11.4853 19.1989 13.5926 21.0735Z" fill="#FF483C"/>
</svg>
