<svg width="12" height="20" viewBox="0 0 12 20" fill="none" xmlns="http://www.w3.org/2000/svg">
<path d="M6 20C4.23333 20 2.79167 19.7208 1.675 19.1625C0.558333 18.6042 0 17.8833 0 17C0 16.4167 0.241667 15.9083 0.725 15.475C1.20833 15.0417 1.875 14.7 2.725 14.45L3.3 16.35C3.01667 16.4333 2.75833 16.5375 2.525 16.6625C2.29167 16.7875 2.13333 16.9 2.05 17C2.26667 17.2667 2.76667 17.5 3.55 17.7C4.33333 17.9 5.15 18 6 18C6.85 18 7.67083 17.9 8.4625 17.7C9.25417 17.5 9.75833 17.2667 9.975 17C9.89167 16.9 9.73333 16.7875 9.5 16.6625C9.26667 16.5375 9.00833 16.4333 8.725 16.35L9.3 14.45C10.15 14.7 10.8125 15.0417 11.2875 15.475C11.7625 15.9083 12 16.4167 12 17C12 17.8833 11.4417 18.6042 10.325 19.1625C9.20833 19.7208 7.76667 20 6 20ZM6 17C5.81667 17 5.65 16.9458 5.5 16.8375C5.35 16.7292 5.24167 16.5833 5.175 16.4C4.79167 15.2167 4.30833 14.225 3.725 13.425C3.14167 12.625 2.575 11.8583 2.025 11.125C1.49167 10.3917 1.02917 9.63333 0.6375 8.85C0.245833 8.06667 0.05 7.1 0.05 5.95C0.05 4.28333 0.625 2.875 1.775 1.725C2.925 0.575 4.33333 0 6 0C7.66667 0 9.075 0.575 10.225 1.725C11.375 2.875 11.95 4.28333 11.95 5.95C11.95 7.1 11.7583 8.06667 11.375 8.85C10.9917 9.63333 10.525 10.3917 9.975 11.125C9.44167 11.8583 8.87917 12.625 8.2875 13.425C7.69583 14.225 7.20833 15.2167 6.825 16.4C6.75833 16.5833 6.65 16.7292 6.5 16.8375C6.35 16.9458 6.18333 17 6 17ZM6 8.075C6.58333 8.075 7.08333 7.86667 7.5 7.45C7.91667 7.03333 8.125 6.53333 8.125 5.95C8.125 5.36667 7.91667 4.86667 7.5 4.45C7.08333 4.03333 6.58333 3.825 6 3.825C5.41667 3.825 4.91667 4.03333 4.5 4.45C4.08333 4.86667 3.875 5.36667 3.875 5.95C3.875 6.53333 4.08333 7.03333 4.5 7.45C4.91667 7.86667 5.41667 8.075 6 8.075Z" fill="#1C1B1F"/>
</svg>
