<svg width="109" height="115" viewBox="0 0 109 115" fill="none" xmlns="http://www.w3.org/2000/svg">
<path d="M79.6984 15.0716C81.1109 24.9893 75.685 34.4466 67.5793 36.1951C59.4736 37.9435 51.7576 31.3211 50.3451 21.4034C48.9326 11.4857 54.3585 2.02845 62.4642 0.279982C70.5698 -1.46848 78.2859 5.15397 79.6984 15.0716Z" fill="#FFD43C"/>
<path d="M45.8115 23.1665C49.7526 32.1596 46.8821 42.6531 39.4 46.6044C31.9179 50.5557 22.6576 46.4685 18.7165 37.4754C14.7755 28.4823 17.646 17.9888 25.1281 14.0375C32.6101 10.0862 41.8704 14.1734 45.8115 23.1665Z" fill="#FFD43C"/>
<path d="M20.3496 51.9887C26.6978 56.3217 28.7426 64.5852 24.9168 70.4459C21.091 76.3065 12.8434 77.545 6.49519 73.212C0.147023 68.879 -1.89777 60.6155 1.92801 54.7548C5.7538 48.8942 14.0014 47.6558 20.3496 51.9887Z" fill="#FFD43C"/>
<path d="M108.995 29.7687C108.809 38.1948 103.13 45.2299 96.3127 45.4821C89.4949 45.7344 84.1194 39.1082 84.3061 30.6821C84.4928 22.2561 90.171 15.221 96.9887 14.9687C103.806 14.7165 109.182 21.3427 108.995 29.7687Z" fill="#FFD43C"/>
<path d="M97.9302 57.6062C112.042 70.9613 104.536 98.9752 88.97 109.568C73.4041 120.16 47.0083 115.072 41.5611 95.9648C36.8486 74.3146 34.9554 54.5958 50.5213 44.0033C66.0872 33.4109 81.0594 41.64 97.9302 57.6062Z" fill="#FFD43C"/>
</svg>
