<svg width="18" height="18" viewBox="0 0 18 18" fill="none" xmlns="http://www.w3.org/2000/svg">
<path d="M16.6161 6.29458L11.7761 5.87458L9.88614 1.42458C9.54614 0.614578 8.38614 0.614578 8.04614 1.42458L6.15614 5.88458L1.32614 6.29458C0.446137 6.36458 0.086137 7.46458 0.756137 8.04458L4.42614 11.2246L3.32614 15.9446C3.12614 16.8046 4.05614 17.4846 4.81614 17.0246L8.96614 14.5246L13.1161 17.0346C13.8761 17.4946 14.8061 16.8146 14.6061 15.9546L13.5061 11.2246L17.1761 8.04458C17.8461 7.46458 17.4961 6.36458 16.6161 6.29458ZM8.96614 12.6546L5.20614 14.9246L6.20614 10.6446L2.88614 7.76458L7.26614 7.38458L8.96614 3.35458L10.6761 7.39458L15.0561 7.77458L11.7361 10.6546L12.7361 14.9346L8.96614 12.6546Z" fill="#222222"/>
</svg>
