<svg width="21" height="20" viewBox="0 0 21 20" fill="none" xmlns="http://www.w3.org/2000/svg">
<mask id="mask0_258_141" style="mask-type:alpha" maskUnits="userSpaceOnUse" x="0" y="0" width="21" height="20">
<rect x="0.333252" width="20.2754" height="20" fill="#D9D9D9"/>
</mask>
<g mask="url(#mask0_258_141)">
<path d="M17.1926 17.5C15.3763 17.5 13.6058 17.1007 11.881 16.3021C10.1562 15.5035 8.62849 14.4479 7.29793 13.1354C5.96737 11.8229 4.89729 10.316 4.08769 8.61458C3.27809 6.91319 2.87329 5.16667 2.87329 3.375C2.87329 3.125 2.95777 2.91667 3.12673 2.75C3.29569 2.58333 3.50689 2.5 3.76033 2.5H7.18177C7.37889 2.5 7.55489 2.5625 7.70977 2.6875C7.86465 2.8125 7.95617 2.97222 7.98433 3.16667L8.53345 6.08333C8.56161 6.27778 8.55809 6.45486 8.52289 6.61458C8.48769 6.77431 8.40673 6.91667 8.28001 7.04167L6.23137 9.08333C6.82273 10.0833 7.56545 11.0208 8.45953 11.8958C9.35361 12.7708 10.3357 13.5278 11.4058 14.1667L13.391 12.2083C13.5178 12.0833 13.6832 11.9896 13.8874 11.9271C14.0915 11.8646 14.2922 11.8472 14.4893 11.875L17.4038 12.4583C17.601 12.5 17.7629 12.5938 17.8896 12.7396C18.0163 12.8854 18.0797 13.0556 18.0797 13.25V16.625C18.0797 16.875 17.9952 17.0833 17.8262 17.25C17.6573 17.4167 17.4461 17.5 17.1926 17.5ZM5.42881 7.5L6.82273 6.125L6.46369 4.16667H4.58401C4.65441 4.73611 4.75297 5.29861 4.87969 5.85417C5.00641 6.40972 5.18945 6.95833 5.42881 7.5ZM16.3901 15.7917V13.9583L14.4048 13.5625L12.9898 14.9583C13.5389 15.1944 14.0986 15.3819 14.6688 15.5208C15.239 15.6597 15.8128 15.75 16.3901 15.7917Z" fill="#222222"/>
</g>
</svg>
