<svg width="21" height="20" viewBox="0 0 21 20" fill="none" xmlns="http://www.w3.org/2000/svg">
<mask id="mask0_338_591" style="mask-type:alpha" maskUnits="userSpaceOnUse" x="0" y="0" width="21" height="20">
<rect width="20.2754" height="20" fill="#D9D9D9"/>
</mask>
<g mask="url(#mask0_338_591)">
<path d="M16.8594 17.5C15.0431 17.5 13.2725 17.1007 11.5477 16.3021C9.82291 15.5035 8.29524 14.4479 6.96468 13.1354C5.63412 11.8229 4.56404 10.316 3.75444 8.61458C2.94484 6.91319 2.54004 5.16667 2.54004 3.375C2.54004 3.125 2.62452 2.91667 2.79348 2.75C2.96244 2.58333 3.17364 2.5 3.42708 2.5H6.84852C7.04564 2.5 7.22164 2.5625 7.37652 2.6875C7.5314 2.8125 7.62292 2.97222 7.65108 3.16667L8.2002 6.08333C8.22836 6.27778 8.22484 6.45486 8.18964 6.61458C8.15444 6.77431 8.07348 6.91667 7.94676 7.04167L5.89812 9.08333C6.48948 10.0833 7.2322 11.0208 8.12628 11.8958C9.02036 12.7708 10.0024 13.5278 11.0725 14.1667L13.0578 12.2083C13.1845 12.0833 13.35 11.9896 13.5541 11.9271C13.7583 11.8646 13.9589 11.8472 14.156 11.875L17.0706 12.4583C17.2677 12.5 17.4296 12.5938 17.5563 12.7396C17.6831 12.8854 17.7464 13.0556 17.7464 13.25V16.625C17.7464 16.875 17.662 17.0833 17.493 17.25C17.324 17.4167 17.1128 17.5 16.8594 17.5ZM5.09556 7.5L6.48948 6.125L6.13044 4.16667H4.25076C4.32116 4.73611 4.41972 5.29861 4.54644 5.85417C4.67316 6.40972 4.8562 6.95833 5.09556 7.5ZM16.0568 15.7917V13.9583L14.0716 13.5625L12.6565 14.9583C13.2056 15.1944 13.7653 15.3819 14.3356 15.5208C14.9058 15.6597 15.4796 15.75 16.0568 15.7917Z" fill="#EBEBEB"/>
</g>
</svg>
