<svg width="19" height="18" viewBox="0 0 19 18" fill="none" xmlns="http://www.w3.org/2000/svg">
<path opacity="0.5" d="M16.4361 17.5125L10.8361 11.9125C10.3361 12.3125 9.76113 12.6292 9.11113 12.8625C8.46113 13.0958 7.76947 13.2125 7.03613 13.2125C5.21947 13.2125 3.68213 12.5832 2.42413 11.3245C1.16613 10.0658 0.536799 8.52849 0.536133 6.71249C0.536133 4.89583 1.16547 3.35849 2.42413 2.10049C3.6828 0.842494 5.22013 0.213161 7.03613 0.212494C8.8528 0.212494 10.3901 0.841827 11.6481 2.10049C12.9061 3.35916 13.5355 4.89649 13.5361 6.71249C13.5361 7.44583 13.4195 8.13749 13.1861 8.78749C12.9528 9.43749 12.6361 10.0125 12.2361 10.5125L17.8611 16.1375C18.0445 16.3208 18.1361 16.5458 18.1361 16.8125C18.1361 17.0792 18.0361 17.3125 17.8361 17.5125C17.6528 17.6958 17.4195 17.7875 17.1361 17.7875C16.8528 17.7875 16.6195 17.6958 16.4361 17.5125ZM7.03613 11.2125C8.28613 11.2125 9.3488 10.7748 10.2241 9.89949C11.0995 9.02416 11.5368 7.96183 11.5361 6.71249C11.5361 5.46249 11.0985 4.39983 10.2231 3.52449C9.3478 2.64916 8.28547 2.21183 7.03613 2.21249C5.78613 2.21249 4.72347 2.65016 3.84813 3.52549C2.9728 4.40083 2.53547 5.46316 2.53613 6.71249C2.53613 7.96249 2.9738 9.02516 3.84913 9.90049C4.72447 10.7758 5.7868 11.2132 7.03613 11.2125Z" fill="#222222"/>
</svg>
