<svg width="128" height="58" viewBox="0 0 128 58" fill="none" xmlns="http://www.w3.org/2000/svg">
<path d="M43.843 24.475H45.619C46.6303 24.475 47.4443 24.2283 48.061 23.735C48.7023 23.217 49.023 22.4893 49.023 21.552C49.023 20.6147 48.727 19.8993 48.135 19.406C47.5677 18.888 46.729 18.629 45.619 18.629C45.2243 18.629 44.8913 18.6413 44.62 18.666C44.3733 18.666 44.1143 18.6907 43.843 18.74V24.475ZM46.026 29.544H37.405V16.187C37.405 15.669 37.553 15.2743 37.849 15.003C38.145 14.707 38.5273 14.4727 38.996 14.3C39.8347 14.004 40.8337 13.7943 41.993 13.671C43.1523 13.523 44.1883 13.449 45.101 13.449C48.4803 13.449 51.0703 14.1767 52.871 15.632C54.6963 17.0873 55.609 19.0607 55.609 21.552C55.609 23.1553 55.2143 24.5613 54.425 25.77C53.6357 26.954 52.5257 27.879 51.095 28.545C49.6643 29.211 47.9747 29.544 46.026 29.544ZM37.405 26.732H43.88V36.463C43.6087 36.537 43.1893 36.611 42.622 36.685C42.0547 36.759 41.475 36.796 40.883 36.796C39.6003 36.796 38.7 36.574 38.182 36.13C37.664 35.6613 37.405 34.8597 37.405 33.725V26.732ZM60.545 30.321L60.323 26.177L68.87 24.771C68.8207 24.2777 68.574 23.7843 68.13 23.291C67.686 22.7977 66.9954 22.551 66.058 22.551C65.0714 22.551 64.245 22.8717 63.579 23.513C62.9377 24.1543 62.5924 25.067 62.543 26.251L62.765 29.359C63.0117 30.4937 63.5667 31.283 64.43 31.727C65.318 32.171 66.3047 32.393 67.39 32.393C68.426 32.393 69.4127 32.2573 70.35 31.986C71.2874 31.7147 72.0397 31.4187 72.607 31.098C73.0017 31.3447 73.3347 31.69 73.606 32.134C73.8774 32.578 74.013 33.0467 74.013 33.54C74.013 34.354 73.7047 35.0323 73.088 35.575C72.496 36.093 71.6697 36.4753 70.609 36.722C69.5484 36.9687 68.3274 37.092 66.946 37.092C65.022 37.092 63.283 36.7343 61.729 36.019C60.1997 35.279 58.9787 34.1813 58.066 32.726C57.178 31.2707 56.734 29.4453 56.734 27.25C56.734 25.622 56.993 24.216 57.511 23.032C58.0537 21.848 58.769 20.886 59.657 20.146C60.545 19.406 61.5317 18.8633 62.617 18.518C63.727 18.148 64.8617 17.963 66.021 17.963C67.7724 17.963 69.3017 18.3083 70.609 18.999C71.9164 19.665 72.94 20.59 73.68 21.774C74.42 22.9333 74.79 24.2777 74.79 25.807C74.79 26.6457 74.5557 27.287 74.087 27.731C73.6184 28.175 72.9647 28.4587 72.126 28.582L60.545 30.321ZM77.5217 26.732H83.7377V30.321C83.7377 30.9377 83.935 31.394 84.3297 31.69C84.749 31.9613 85.3287 32.097 86.0687 32.097C86.4387 32.097 86.821 32.0723 87.2157 32.023C87.6103 31.949 87.9557 31.8627 88.2517 31.764C88.4737 32.0107 88.6587 32.3067 88.8067 32.652C88.9793 32.9973 89.0657 33.4043 89.0657 33.873C89.0657 34.7857 88.708 35.5503 87.9927 36.167C87.302 36.759 86.0687 37.055 84.2927 37.055C82.122 37.055 80.4447 36.5617 79.2607 35.575C78.1013 34.5883 77.5217 32.985 77.5217 30.765V26.732ZM81.5917 23.735V18.925H88.5847C88.7327 19.1717 88.8683 19.5047 88.9917 19.924C89.1397 20.3433 89.2137 20.7997 89.2137 21.293C89.2137 22.1563 89.0163 22.7853 88.6217 23.18C88.2517 23.55 87.746 23.735 87.1047 23.735H81.5917ZM83.7377 27.62H77.5217V14.337C77.793 14.263 78.1753 14.189 78.6687 14.115C79.1867 14.0163 79.7293 13.967 80.2967 13.967C81.5053 13.967 82.381 14.1767 82.9237 14.596C83.4663 15.0153 83.7377 15.7923 83.7377 16.927V27.62ZM106.954 31.135C106.954 33.0097 106.238 34.4773 104.808 35.538C103.402 36.5987 101.342 37.129 98.6287 37.129C96.5321 37.129 94.8054 36.833 93.4487 36.241C92.1167 35.6243 91.4507 34.6747 91.4507 33.392C91.4507 32.8 91.5741 32.2943 91.8207 31.875C92.0674 31.4557 92.3634 31.1227 92.7087 30.876C93.4241 31.2707 94.2381 31.6283 95.1507 31.949C96.0881 32.245 97.1611 32.393 98.3697 32.393C99.9484 32.393 100.738 31.986 100.738 31.172C100.738 30.8267 100.59 30.5553 100.294 30.358C99.9977 30.1607 99.5044 30.0003 98.8137 29.877L97.7037 29.655C95.5824 29.2357 93.9914 28.5697 92.9307 27.657C91.8701 26.7443 91.3397 25.4617 91.3397 23.809C91.3397 21.959 92.0921 20.516 93.5967 19.48C95.1014 18.444 97.0624 17.926 99.4797 17.926C100.688 17.926 101.786 18.0493 102.773 18.296C103.784 18.518 104.586 18.888 105.178 19.406C105.77 19.8993 106.066 20.5407 106.066 21.33C106.066 21.8727 105.955 22.3537 105.733 22.773C105.535 23.1923 105.276 23.5377 104.956 23.809C104.684 23.6363 104.253 23.4637 103.661 23.291C103.093 23.1183 102.477 22.9703 101.811 22.847C101.145 22.7237 100.553 22.662 100.035 22.662C99.2207 22.662 98.5917 22.7607 98.1477 22.958C97.7037 23.1307 97.4817 23.4143 97.4817 23.809C97.4817 24.0803 97.6051 24.3023 97.8517 24.475C98.0984 24.6477 98.5671 24.808 99.2577 24.956L100.405 25.215C102.773 25.7577 104.45 26.51 105.437 27.472C106.448 28.4093 106.954 29.6303 106.954 31.135ZM111.895 31.912C111.525 31.0733 111.13 30.1113 110.711 29.026C110.291 27.916 109.847 26.5963 109.379 25.067C108.935 23.513 108.441 21.6383 107.899 19.443C108.244 19.0977 108.7 18.8017 109.268 18.555C109.86 18.2837 110.501 18.148 111.192 18.148C112.055 18.148 112.77 18.333 113.338 18.703C113.905 19.0483 114.324 19.7143 114.596 20.701C115.089 22.4277 115.582 24.142 116.076 25.844C116.569 27.5213 117.05 29.1987 117.519 30.876H117.667C118.061 29.7413 118.444 28.4957 118.814 27.139C119.208 25.7823 119.566 24.401 119.887 22.995C120.232 21.5643 120.516 20.183 120.738 18.851C121.157 18.629 121.589 18.4563 122.033 18.333C122.477 18.2097 122.945 18.148 123.439 18.148C124.302 18.148 125.054 18.333 125.696 18.703C126.337 19.073 126.658 19.7143 126.658 20.627C126.658 21.4163 126.559 22.329 126.362 23.365C126.164 24.401 125.893 25.4987 125.548 26.658C125.202 27.8173 124.808 28.989 124.364 30.173C123.92 31.3323 123.451 32.4547 122.958 33.54C122.464 34.6007 121.971 35.5627 121.478 36.426C120.096 38.8187 118.814 40.5947 117.63 41.754C116.446 42.9133 115.249 43.493 114.041 43.493C113.054 43.493 112.228 43.1847 111.562 42.568C110.896 41.9513 110.501 41.1497 110.378 40.163C110.896 39.719 111.414 39.238 111.932 38.72C112.474 38.202 112.992 37.647 113.486 37.055C113.979 36.4877 114.423 35.9203 114.818 35.353C114.398 35.2297 113.942 34.946 113.449 34.502C112.98 34.0333 112.462 33.17 111.895 31.912Z" fill="#222222"/>
<path d="M21.0497 13.8816C21.3798 16.2053 20.1117 18.4211 18.2174 18.8308C16.323 19.2404 14.5197 17.6888 14.1896 15.3651C13.8595 13.0414 15.1275 10.8256 17.0219 10.416C18.9163 10.0063 20.7195 11.5579 21.0497 13.8816Z" fill="#222222"/>
<path d="M13.1301 15.7782C14.0511 17.8853 13.3803 20.3439 11.6316 21.2697C9.88303 22.1954 7.71884 21.2378 6.79778 19.1308C5.87672 17.0237 6.54758 14.5651 8.29619 13.6393C10.0448 12.7136 12.209 13.6712 13.1301 15.7782Z" fill="#222222"/>
<path d="M7.17943 22.5312C8.66304 23.5464 9.14093 25.4825 8.24681 26.8557C7.3527 28.2288 5.42517 28.519 3.94156 27.5038C2.45795 26.4886 1.98007 24.5524 2.87418 23.1793C3.76829 21.8062 5.69582 21.516 7.17943 22.5312Z" fill="#222222"/>
<path d="M27.8966 17.3251C27.8529 19.2993 26.5259 20.9476 24.9325 21.0067C23.3392 21.0658 22.0829 19.5133 22.1265 17.5391C22.1701 15.5649 23.4972 13.9166 25.0905 13.8575C26.6839 13.7984 27.9402 15.3509 27.8966 17.3251Z" fill="#222222"/>
<path d="M25.3106 23.8473C28.6086 26.9764 26.8544 33.54 23.2165 36.0218C19.5786 38.5036 13.4097 37.3115 12.1367 32.8347C11.0354 27.7621 10.5929 23.142 14.2308 20.6602C17.8686 18.1785 21.3677 20.1065 25.3106 23.8473Z" fill="#222222"/>
</svg>
