<svg width="129" height="66" viewBox="0 0 129 66" fill="none" xmlns="http://www.w3.org/2000/svg">
<path d="M44.343 28.3072H46.119C47.1303 28.3072 47.9443 28.0605 48.561 27.5672C49.2023 27.0492 49.523 26.3215 49.523 25.3842C49.523 24.4468 49.227 23.7315 48.635 23.2382C48.0677 22.7202 47.229 22.4612 46.119 22.4612C45.7243 22.4612 45.3913 22.4735 45.12 22.4982C44.8733 22.4982 44.6143 22.5228 44.343 22.5722V28.3072ZM46.526 33.3762H37.905V20.0192C37.905 19.5012 38.053 19.1065 38.349 18.8352C38.645 18.5392 39.0273 18.3048 39.496 18.1322C40.3347 17.8362 41.3337 17.6265 42.493 17.5032C43.6523 17.3552 44.6883 17.2812 45.601 17.2812C48.9803 17.2812 51.5703 18.0088 53.371 19.4642C55.1963 20.9195 56.109 22.8928 56.109 25.3842C56.109 26.9875 55.7143 28.3935 54.925 29.6022C54.1357 30.7862 53.0257 31.7112 51.595 32.3772C50.1643 33.0432 48.4747 33.3762 46.526 33.3762ZM37.905 30.5642H44.38V40.2952C44.1087 40.3692 43.6893 40.4432 43.122 40.5172C42.5547 40.5912 41.975 40.6282 41.383 40.6282C40.1003 40.6282 39.2 40.4062 38.682 39.9622C38.164 39.4935 37.905 38.6918 37.905 37.5572V30.5642ZM61.045 34.1532L60.823 30.0092L69.37 28.6032C69.3207 28.1098 69.074 27.6165 68.63 27.1232C68.186 26.6298 67.4954 26.3832 66.558 26.3832C65.5714 26.3832 64.745 26.7038 64.079 27.3452C63.4377 27.9865 63.0924 28.8992 63.043 30.0832L63.265 33.1912C63.5117 34.3258 64.0667 35.1152 64.93 35.5592C65.818 36.0032 66.8047 36.2252 67.89 36.2252C68.926 36.2252 69.9127 36.0895 70.85 35.8182C71.7874 35.5468 72.5397 35.2508 73.107 34.9302C73.5017 35.1768 73.8347 35.5222 74.106 35.9662C74.3774 36.4102 74.513 36.8788 74.513 37.3722C74.513 38.1862 74.2047 38.8645 73.588 39.4072C72.996 39.9252 72.1697 40.3075 71.109 40.5542C70.0484 40.8008 68.8274 40.9242 67.446 40.9242C65.522 40.9242 63.783 40.5665 62.229 39.8512C60.6997 39.1112 59.4787 38.0135 58.566 36.5582C57.678 35.1028 57.234 33.2775 57.234 31.0822C57.234 29.4542 57.493 28.0482 58.011 26.8642C58.5537 25.6802 59.269 24.7182 60.157 23.9782C61.045 23.2382 62.0317 22.6955 63.117 22.3502C64.227 21.9802 65.3617 21.7952 66.521 21.7952C68.2724 21.7952 69.8017 22.1405 71.109 22.8312C72.4164 23.4972 73.44 24.4222 74.18 25.6062C74.92 26.7655 75.29 28.1098 75.29 29.6392C75.29 30.4778 75.0557 31.1192 74.587 31.5632C74.1184 32.0072 73.4647 32.2908 72.626 32.4142L61.045 34.1532ZM78.0217 30.5642H84.2377V34.1532C84.2377 34.7698 84.435 35.2262 84.8297 35.5222C85.249 35.7935 85.8287 35.9292 86.5687 35.9292C86.9387 35.9292 87.321 35.9045 87.7157 35.8552C88.1103 35.7812 88.4557 35.6948 88.7517 35.5962C88.9737 35.8428 89.1587 36.1388 89.3067 36.4842C89.4793 36.8295 89.5657 37.2365 89.5657 37.7052C89.5657 38.6178 89.208 39.3825 88.4927 39.9992C87.802 40.5912 86.5687 40.8872 84.7927 40.8872C82.622 40.8872 80.9447 40.3938 79.7607 39.4072C78.6013 38.4205 78.0217 36.8172 78.0217 34.5972V30.5642ZM82.0917 27.5672V22.7572H89.0847C89.2327 23.0038 89.3683 23.3368 89.4917 23.7562C89.6397 24.1755 89.7137 24.6318 89.7137 25.1252C89.7137 25.9885 89.5163 26.6175 89.1217 27.0122C88.7517 27.3822 88.246 27.5672 87.6047 27.5672H82.0917ZM84.2377 31.4522H78.0217V18.1692C78.293 18.0952 78.6753 18.0212 79.1687 17.9472C79.6867 17.8485 80.2293 17.7992 80.7967 17.7992C82.0053 17.7992 82.881 18.0088 83.4237 18.4282C83.9663 18.8475 84.2377 19.6245 84.2377 20.7592V31.4522ZM107.454 34.9672C107.454 36.8418 106.738 38.3095 105.308 39.3702C103.902 40.4308 101.842 40.9612 99.1287 40.9612C97.0321 40.9612 95.3054 40.6652 93.9487 40.0732C92.6167 39.4565 91.9507 38.5068 91.9507 37.2242C91.9507 36.6322 92.0741 36.1265 92.3207 35.7072C92.5674 35.2878 92.8634 34.9548 93.2087 34.7082C93.9241 35.1028 94.7381 35.4605 95.6507 35.7812C96.5881 36.0772 97.6611 36.2252 98.8697 36.2252C100.448 36.2252 101.238 35.8182 101.238 35.0042C101.238 34.6588 101.09 34.3875 100.794 34.1902C100.498 33.9928 100.004 33.8325 99.3137 33.7092L98.2037 33.4872C96.0824 33.0678 94.4914 32.4018 93.4307 31.4892C92.3701 30.5765 91.8397 29.2938 91.8397 27.6412C91.8397 25.7912 92.5921 24.3482 94.0967 23.3122C95.6014 22.2762 97.5624 21.7582 99.9797 21.7582C101.188 21.7582 102.286 21.8815 103.273 22.1282C104.284 22.3502 105.086 22.7202 105.678 23.2382C106.27 23.7315 106.566 24.3728 106.566 25.1622C106.566 25.7048 106.455 26.1858 106.233 26.6052C106.035 27.0245 105.776 27.3698 105.456 27.6412C105.184 27.4685 104.753 27.2958 104.161 27.1232C103.593 26.9505 102.977 26.8025 102.311 26.6792C101.645 26.5558 101.053 26.4942 100.535 26.4942C99.7207 26.4942 99.0917 26.5928 98.6477 26.7902C98.2037 26.9628 97.9817 27.2465 97.9817 27.6412C97.9817 27.9125 98.1051 28.1345 98.3517 28.3072C98.5984 28.4798 99.0671 28.6402 99.7577 28.7882L100.905 29.0472C103.273 29.5898 104.95 30.3422 105.937 31.3042C106.948 32.2415 107.454 33.4625 107.454 34.9672ZM112.395 35.7442C112.025 34.9055 111.63 33.9435 111.211 32.8582C110.791 31.7482 110.347 30.4285 109.879 28.8992C109.435 27.3452 108.941 25.4705 108.399 23.2752C108.744 22.9298 109.2 22.6338 109.768 22.3872C110.36 22.1158 111.001 21.9802 111.692 21.9802C112.555 21.9802 113.27 22.1652 113.838 22.5352C114.405 22.8805 114.824 23.5465 115.096 24.5332C115.589 26.2598 116.082 27.9742 116.576 29.6762C117.069 31.3535 117.55 33.0308 118.019 34.7082H118.167C118.561 33.5735 118.944 32.3278 119.314 30.9712C119.708 29.6145 120.066 28.2332 120.387 26.8272C120.732 25.3965 121.016 24.0152 121.238 22.6832C121.657 22.4612 122.089 22.2885 122.533 22.1652C122.977 22.0418 123.445 21.9802 123.939 21.9802C124.802 21.9802 125.554 22.1652 126.196 22.5352C126.837 22.9052 127.158 23.5465 127.158 24.4592C127.158 25.2485 127.059 26.1612 126.862 27.1972C126.664 28.2332 126.393 29.3308 126.048 30.4902C125.702 31.6495 125.308 32.8212 124.864 34.0052C124.42 35.1645 123.951 36.2868 123.458 37.3722C122.964 38.4328 122.471 39.3948 121.978 40.2582C120.596 42.6508 119.314 44.4268 118.13 45.5862C116.946 46.7455 115.749 47.3252 114.541 47.3252C113.554 47.3252 112.728 47.0168 112.062 46.4002C111.396 45.7835 111.001 44.9818 110.878 43.9952C111.396 43.5512 111.914 43.0702 112.432 42.5522C112.974 42.0342 113.492 41.4792 113.986 40.8872C114.479 40.3198 114.923 39.7525 115.318 39.1852C114.898 39.0618 114.442 38.7782 113.949 38.3342C113.48 37.8655 112.962 37.0022 112.395 35.7442Z" fill="#EBEBEB"/>
<path d="M21.5497 17.7138C21.8798 20.0375 20.6117 22.2533 18.7174 22.6629C16.823 23.0726 15.0197 21.521 14.6896 19.1973C14.3595 16.8736 15.6275 14.6578 17.5219 14.2481C19.4163 13.8385 21.2195 15.3901 21.5497 17.7138Z" fill="#EBEBEB"/>
<path d="M13.6301 19.6104C14.5511 21.7174 13.8803 24.176 12.1316 25.1018C10.383 26.0276 8.21884 25.07 7.29778 22.9629C6.37672 20.8559 7.04758 18.3973 8.79619 17.4715C10.5448 16.5457 12.709 17.5033 13.6301 19.6104Z" fill="#EBEBEB"/>
<path d="M7.67943 26.3634C9.16304 27.3786 9.64093 29.3147 8.74681 30.6878C7.8527 32.061 5.92517 32.3511 4.44156 31.3359C2.95795 30.3207 2.48007 28.3846 3.37418 27.0114C4.26829 25.6383 6.19582 25.3481 7.67943 26.3634Z" fill="#EBEBEB"/>
<path d="M28.3966 21.1573C28.3529 23.1315 27.0259 24.7798 25.4325 24.8389C23.8392 24.898 22.5829 23.3455 22.6265 21.3713C22.6701 19.3971 23.9972 17.7488 25.5905 17.6897C27.1839 17.6306 28.4402 19.1831 28.3966 21.1573Z" fill="#EBEBEB"/>
<path d="M25.8106 27.6795C29.1086 30.8086 27.3544 37.3722 23.7165 39.854C20.0786 42.3357 13.9097 41.1437 12.6367 36.6668C11.5354 31.5943 11.0929 26.9742 14.7308 24.4924C18.3686 22.0106 21.8677 23.9387 25.8106 27.6795Z" fill="#EBEBEB"/>
</svg>
