<svg width="152" height="152" viewBox="0 0 152 152" fill="none" xmlns="http://www.w3.org/2000/svg">
<path d="M152 76C152 117.974 117.974 152 76 152C34.0264 152 0 117.974 0 76C0 34.0264 34.0264 0 76 0C117.974 0 152 34.0264 152 76Z" fill="#222222"/>
<path d="M93.6984 30.0716C95.1109 39.9893 89.685 49.4466 81.5793 51.1951C73.4736 52.9435 65.7576 46.3211 64.3451 36.4034C62.9326 26.4857 68.3585 17.0284 76.4642 15.28C84.5698 13.5315 92.2859 20.154 93.6984 30.0716Z" fill="#FFD43C"/>
<path d="M59.8115 38.1665C63.7526 47.1596 60.8821 57.6531 53.4 61.6044C45.9179 65.5557 36.6576 61.4685 32.7165 52.4754C28.7755 43.4823 31.646 32.9888 39.1281 29.0375C46.6101 25.0862 55.8704 29.1734 59.8115 38.1665Z" fill="#FFD43C"/>
<path d="M34.3496 66.9887C40.6978 71.3217 42.7426 79.5852 38.9168 85.4459C35.091 91.3065 26.8434 92.545 20.4952 88.212C14.147 83.879 12.1022 75.6155 15.928 69.7548C19.7538 63.8942 28.0014 62.6558 34.3496 66.9887Z" fill="#FFD43C"/>
<path d="M122.995 44.7687C122.809 53.1948 117.13 60.2299 110.313 60.4821C103.495 60.7343 98.1194 54.1082 98.3061 45.6821C98.4928 37.2561 104.171 30.221 110.989 29.9687C117.806 29.7165 123.182 36.3427 122.995 44.7687Z" fill="#FFD43C"/>
<path d="M111.93 72.6061C126.042 85.9613 118.536 113.975 102.97 124.568C87.4041 135.16 61.0083 130.072 55.5611 110.965C50.8486 89.3146 48.9554 69.5958 64.5213 59.0033C80.0872 48.4109 95.0594 56.64 111.93 72.6061Z" fill="#FFD43C"/>
</svg>
